General
      Complete name :Courage.Under.Fire.1996.BRRip.H264.AAC.5.1ch.Gopo.mp4
      Format : MPEG-4
      Format profile : Base Media
      Codec ID : isom
      File size : 1.80 GiB
      Duration : 1h 56mn
      Overall bit rate : 2 219 Kbps
      Encoded date : UTC 2010-01-11 19:47:37
      Tagged date : UTC 2010-01-11 19:47:37
      Writing application : Yamb 2.1.0.0 [http://yamb.unite-video.com]
   Video #2
      ID : 2
      Format : AVC
      Format/Info : Advanced Video Codec
      Format profile : High@L4.1
      Format settings, CABAC : Yes
      Format settings, ReFrames : 5 frames
      Codec ID : avc1
      Codec ID/Info : Advanced Video Coding
      Duration : 1h 56mn
      Bit rate mode : Variable
      Bit rate : 1 880 Kbps
      Maximum bit rate : 11.8 Mbps
      Width : 1 280 pixels
      Height : 688 pixels
      Display aspect ratio : 1.860
      Frame rate mode : Constant
      Frame rate : 23.976 fps
      Resolution : 24 bits
      Colorimetry : 4:2:0
      Scan type : Progressive
      Bits/(Pixel*Frame) : 0.089
      Stream size : 1.53 GiB (85%)
      Writing library : x264 core 79 r1360 528c100
      Encoding settings : cabac=1 / ref=5 / deblock=1:0:0 / analyse=0x3:0x113 / me=umh / subme=8 / psy=1 / psy_rd=1.0:0.0 / mixed_ref=1 / me_range=16 / chroma_me=1 / trellis=2 / 8x8dct=1 / cqm=0 / deadzone=21,11 / chroma_qp_offset=-2 / threads=1 / nr=0 / decimate=1 / mbaff=0 / constrained_intra=0 / bframes=3 / b_pyramid=0 / b_adapt=2 / b_bias=0 / direct=3 / wpredb=1 / wpredp=2 / keyint=250 / keyint_min=25 / scenecut=40 / rc_lookahead=30 / rc=2pass / mbtree=1 / bitrate=1880 / ratetol=1.0 / qcomp=0.50 / qpmin=10 / qpmax=51 / qpstep=4 / cplxblur=20.0 / qblur=0.5 / vbv_maxrate=24000 / vbv_bufsize=24000 / ip_ratio=1.10 / aq=1:1.00
      Encoded date : UTC 2010-01-10 04:19:51
      Tagged date : UTC 2010-01-11 19:49:18
   Audio #1
      ID : 1
      Format : AAC
      Format/Info : Advanced Audio Codec
      Format version : Version 4
      Format profile : LC
      Format settings, SBR : No
      Codec ID : 40
      Duration : 1h 56mn
      Bit rate mode : Variable
      Bit rate : 335 Kbps
      Maximum bit rate : 431 Kbps
      Channel(s) : 6 channels
      Channel positions : Front: L C R, Rear: L R, LFE
      Sampling rate : 48.0 KHz
      Resolution : 16 bits
      Stream size : 279 MiB (15%)
      Encoded date : UTC 2010-01-11 19:47:37
      Tagged date : UTC 2010-01-11 19:49:18
	Sample : YES
	Subtitle : English,Romanian

PLOT


A US Army officer, despondent about a deadly mistake he made, investigates a female chopper commander's worthiness for the Medal of Honor.
Director: Edward Zwick
CASTING 
     
      Denzel Washington	... 	Nat Serling
	Meg Ryan	... 	Karen Walden
	Lou Diamond Phillips	... 	Monfriez
	Michael Moriarty	... 	General Hershberg
	Matt Damon	... 	Ilario
	Bronson Pinchot	... 	Bruno
	Seth Gilliam	... 	Altameyer
	Regina Taylor	... 	Meredith Serling
	Zeljko Ivanek	... 	Banacek
	Scott Glenn	... 	Gartner
	Tim Guinee	... 	Rady
	Tim Ransom	... 	Boylar
	Sean Astin	... 	Patella
	Armand Darrius	... 	Robins
	Mark Adair-Rios	... 	Bobcat 5 (as Mark Adair-Riós)

SOURCE: Courage.Under.Fire.1996.BluRay.1080p.DTS.x264.dxva-FraMeSToR.mkv

Notes: For best performance I suggest you to use KMPlayer(find it with google) for playback
I haven't tested the movies on a PS3 or Xbox or other devices than PC because I don't own one of them but feel free to test them if you have the oportunity.
